<mxfile host="65bd71144e">
    <diagram id="E-zOPM6hSDA4G-ZeTOl8" name="Page-1">
        <mxGraphModel dx="616" dy="352" grid="1" gridSize="10" guides="1" tooltips="1" connect="1" arrows="1" fold="1" page="1" pageScale="1" pageWidth="1169" pageHeight="827" math="0" shadow="0">
            <root>
                <mxCell id="0"/>
                <mxCell id="1" parent="0"/>
                <mxCell id="2" value="Website Học Trực Tuyến Vui Học ML" style="rounded=0;whiteSpace=wrap;html=1;strokeWidth=2;fontFamily=Times New Roman;" vertex="1" parent="1">
                    <mxGeometry x="524" y="20" width="120" height="60" as="geometry"/>
                </mxCell>
                <mxCell id="3" value="1. Giới thiệu website" style="rounded=0;whiteSpace=wrap;html=1;strokeWidth=2;fontFamily=Times New Roman;" vertex="1" parent="1">
                    <mxGeometry x="94" y="120" width="120" height="60" as="geometry"/>
                </mxCell>
                <mxCell id="4" value="2. Quản lý học viên" style="rounded=0;whiteSpace=wrap;html=1;strokeWidth=2;fontFamily=Times New Roman;" vertex="1" parent="1">
                    <mxGeometry x="309" y="120" width="120" height="60" as="geometry"/>
                </mxCell>
                <mxCell id="5" value="3. Quản lý đào tạo" style="rounded=0;whiteSpace=wrap;html=1;strokeWidth=2;fontFamily=Times New Roman;" vertex="1" parent="1">
                    <mxGeometry x="524" y="120" width="120" height="60" as="geometry"/>
                </mxCell>
                <mxCell id="6" value="4. Quản lý&lt;br&gt;tác giả khóa học" style="rounded=0;whiteSpace=wrap;html=1;strokeWidth=2;fontFamily=Times New Roman;" vertex="1" parent="1">
                    <mxGeometry x="739" y="120" width="120" height="60" as="geometry"/>
                </mxCell>
                <mxCell id="7" value="5. Quản lý khóa học" style="rounded=0;whiteSpace=wrap;html=1;strokeWidth=2;fontFamily=Times New Roman;" vertex="1" parent="1">
                    <mxGeometry x="954" y="120" width="120" height="60" as="geometry"/>
                </mxCell>
                <mxCell id="17" value="1.1. Giới thiệu &lt;br&gt;thông tin cơ bản&lt;br&gt;&amp;nbsp;website" style="rounded=0;whiteSpace=wrap;html=1;strokeWidth=2;fontFamily=Times New Roman;" vertex="1" parent="1">
                    <mxGeometry x="94" y="200" width="120" height="60" as="geometry"/>
                </mxCell>
                <mxCell id="18" value="1.2. Giới thiệu &lt;br&gt;các khóa học" style="rounded=0;whiteSpace=wrap;html=1;strokeWidth=2;fontFamily=Times New Roman;" vertex="1" parent="1">
                    <mxGeometry x="94" y="280" width="120" height="60" as="geometry"/>
                </mxCell>
                <mxCell id="19" value="1.3. Tìm kiếm" style="rounded=0;whiteSpace=wrap;html=1;strokeWidth=2;fontFamily=Times New Roman;" vertex="1" parent="1">
                    <mxGeometry x="94" y="360" width="120" height="60" as="geometry"/>
                </mxCell>
                <mxCell id="20" value="1.4. Giới thiệu &lt;br&gt;thư viện" style="rounded=0;whiteSpace=wrap;html=1;strokeWidth=2;fontFamily=Times New Roman;" vertex="1" parent="1">
                    <mxGeometry x="94" y="440" width="120" height="60" as="geometry"/>
                </mxCell>
                <mxCell id="21" value="2.1. Quản lý &lt;br&gt;tài khoản" style="rounded=0;whiteSpace=wrap;html=1;strokeWidth=2;fontFamily=Times New Roman;" vertex="1" parent="1">
                    <mxGeometry x="309" y="200" width="120" height="60" as="geometry"/>
                </mxCell>
                <mxCell id="22" value="2.1.1. Đăng nhập" style="rounded=0;whiteSpace=wrap;html=1;strokeWidth=2;fontFamily=Times New Roman;" vertex="1" parent="1">
                    <mxGeometry x="341" y="280" width="120" height="60" as="geometry"/>
                </mxCell>
                <mxCell id="23" value="2.1.2. Đăng ký" style="rounded=0;whiteSpace=wrap;html=1;strokeWidth=2;fontFamily=Times New Roman;" vertex="1" parent="1">
                    <mxGeometry x="341" y="360" width="120" height="60" as="geometry"/>
                </mxCell>
                <mxCell id="24" value="2.1.3. Cấp lại &lt;br&gt;mật khẩu" style="rounded=0;whiteSpace=wrap;html=1;strokeWidth=2;fontFamily=Times New Roman;" vertex="1" parent="1">
                    <mxGeometry x="341" y="440" width="120" height="60" as="geometry"/>
                </mxCell>
                <mxCell id="25" value="2.2. Cập nhật &lt;br&gt;thông tin cá nhân" style="rounded=0;whiteSpace=wrap;html=1;strokeWidth=2;fontFamily=Times New Roman;" vertex="1" parent="1">
                    <mxGeometry x="309" y="520" width="120" height="60" as="geometry"/>
                </mxCell>
                <mxCell id="26" value="2.3. Nhận xét &lt;br&gt;khóa học" style="rounded=0;whiteSpace=wrap;html=1;strokeWidth=2;fontFamily=Times New Roman;" vertex="1" parent="1">
                    <mxGeometry x="309" y="600" width="120" height="60" as="geometry"/>
                </mxCell>
                <mxCell id="27" value="2.4. Theo dõi &lt;br&gt;quá trình học" style="rounded=0;whiteSpace=wrap;html=1;strokeWidth=2;fontFamily=Times New Roman;" vertex="1" parent="1">
                    <mxGeometry x="309" y="680" width="120" height="60" as="geometry"/>
                </mxCell>
                <mxCell id="28" value="3.2. Cập nhật &lt;br&gt;quá trình học" style="rounded=0;whiteSpace=wrap;html=1;strokeWidth=2;fontFamily=Times New Roman;" vertex="1" parent="1">
                    <mxGeometry x="525" y="280" width="120" height="60" as="geometry"/>
                </mxCell>
                <mxCell id="29" value="3.1. Tham gia khóa học" style="rounded=0;whiteSpace=wrap;html=1;strokeWidth=2;fontFamily=Times New Roman;" vertex="1" parent="1">
                    <mxGeometry x="524" y="200" width="120" height="60" as="geometry"/>
                </mxCell>
                <mxCell id="30" value="3.2.1. Lưu tiến độ &lt;br&gt;học bài học" style="rounded=0;whiteSpace=wrap;html=1;strokeWidth=2;fontFamily=Times New Roman;" vertex="1" parent="1">
                    <mxGeometry x="558" y="360" width="120" height="60" as="geometry"/>
                </mxCell>
                <mxCell id="31" value="3.2.2. Cập nhật &lt;br&gt;điểm số khóa học" style="rounded=0;whiteSpace=wrap;html=1;strokeWidth=2;fontFamily=Times New Roman;" vertex="1" parent="1">
                    <mxGeometry x="558" y="440" width="120" height="60" as="geometry"/>
                </mxCell>
                <mxCell id="32" value="4.2. Cập nhật &lt;br&gt;tài liệu tham khảo" style="rounded=0;whiteSpace=wrap;html=1;strokeWidth=2;fontFamily=Times New Roman;" vertex="1" parent="1">
                    <mxGeometry x="740" y="280" width="120" height="60" as="geometry"/>
                </mxCell>
                <mxCell id="33" value="4.1. Cập nhật &lt;br&gt;thông tin tác giả" style="rounded=0;whiteSpace=wrap;html=1;strokeWidth=2;fontFamily=Times New Roman;" vertex="1" parent="1">
                    <mxGeometry x="739" y="200" width="120" height="60" as="geometry"/>
                </mxCell>
                <mxCell id="34" value="4.2.1. Thêm tài liệu tham khảo" style="rounded=0;whiteSpace=wrap;html=1;strokeWidth=2;fontFamily=Times New Roman;" vertex="1" parent="1">
                    <mxGeometry x="771" y="360" width="120" height="60" as="geometry"/>
                </mxCell>
                <mxCell id="35" value="3.3. Báo cáo &lt;br&gt;kết quả&amp;nbsp;học" style="rounded=0;whiteSpace=wrap;html=1;strokeWidth=2;fontFamily=Times New Roman;" vertex="1" parent="1">
                    <mxGeometry x="524" y="520" width="120" height="60" as="geometry"/>
                </mxCell>
                <mxCell id="36" value="3.4. Báo cáo &lt;br&gt;phân tích khóa học" style="rounded=0;whiteSpace=wrap;html=1;strokeWidth=2;fontFamily=Times New Roman;" vertex="1" parent="1">
                    <mxGeometry x="524" y="600" width="120" height="60" as="geometry"/>
                </mxCell>
                <mxCell id="37" value="4.3. Nhận báo cáo&lt;br&gt;khóa học" style="rounded=0;whiteSpace=wrap;html=1;strokeWidth=2;fontFamily=Times New Roman;" vertex="1" parent="1">
                    <mxGeometry x="739" y="520" width="120" height="60" as="geometry"/>
                </mxCell>
                <mxCell id="38" value="4.2.2. Gỡ tài liệu tham khảo" style="rounded=0;whiteSpace=wrap;html=1;strokeWidth=2;fontFamily=Times New Roman;" vertex="1" parent="1">
                    <mxGeometry x="772" y="440" width="120" height="60" as="geometry"/>
                </mxCell>
                <mxCell id="40" value="5.1. Cập nhật khóa học" style="rounded=0;whiteSpace=wrap;html=1;strokeWidth=2;fontFamily=Times New Roman;" vertex="1" parent="1">
                    <mxGeometry x="954" y="200" width="120" height="60" as="geometry"/>
                </mxCell>
                <mxCell id="41" value="5.1.2. Sửa thông tin&amp;nbsp;&lt;br&gt;khóa học" style="rounded=0;whiteSpace=wrap;html=1;strokeWidth=2;fontFamily=Times New Roman;" vertex="1" parent="1">
                    <mxGeometry x="981" y="360" width="120" height="60" as="geometry"/>
                </mxCell>
                <mxCell id="42" value="5.1.1. Thêm &lt;br&gt;khóa học" style="rounded=0;whiteSpace=wrap;html=1;strokeWidth=2;fontFamily=Times New Roman;" vertex="1" parent="1">
                    <mxGeometry x="981" y="280" width="120" height="60" as="geometry"/>
                </mxCell>
                <mxCell id="43" value="5.1.3. Gỡ khóa học" style="rounded=0;whiteSpace=wrap;html=1;strokeWidth=2;fontFamily=Times New Roman;" vertex="1" parent="1">
                    <mxGeometry x="981" y="440" width="120" height="60" as="geometry"/>
                </mxCell>
                <mxCell id="44" value="5.1.4. Đóng khóa học" style="rounded=0;whiteSpace=wrap;html=1;strokeWidth=2;fontFamily=Times New Roman;" vertex="1" parent="1">
                    <mxGeometry x="981" y="520" width="120" height="60" as="geometry"/>
                </mxCell>
                <mxCell id="46" value="5.2. Kiểm tra &lt;br&gt;học viên" style="rounded=0;whiteSpace=wrap;html=1;strokeWidth=2;fontFamily=Times New Roman;" vertex="1" parent="1">
                    <mxGeometry x="954" y="600" width="120" height="60" as="geometry"/>
                </mxCell>
                <mxCell id="47" value="5.3. Tổng kết &lt;br&gt;khóa học" style="rounded=0;whiteSpace=wrap;html=1;strokeWidth=2;fontFamily=Times New Roman;" vertex="1" parent="1">
                    <mxGeometry x="954" y="680" width="120" height="60" as="geometry"/>
                </mxCell>
                <mxCell id="49" value="" style="endArrow=none;html=1;strokeWidth=2;fontFamily=Times New Roman;" edge="1" parent="1">
                    <mxGeometry width="50" height="50" relative="1" as="geometry">
                        <mxPoint x="150" y="100" as="sourcePoint"/>
                        <mxPoint x="1020" y="100" as="targetPoint"/>
                    </mxGeometry>
                </mxCell>
                <mxCell id="50" value="" style="endArrow=none;html=1;exitX=0.468;exitY=-0.003;exitDx=0;exitDy=0;exitPerimeter=0;strokeWidth=2;fontFamily=Times New Roman;" edge="1" parent="1" source="3">
                    <mxGeometry width="50" height="50" relative="1" as="geometry">
                        <mxPoint x="270" y="180" as="sourcePoint"/>
                        <mxPoint x="150" y="100" as="targetPoint"/>
                    </mxGeometry>
                </mxCell>
                <mxCell id="51" value="" style="endArrow=none;html=1;exitX=0.468;exitY=-0.003;exitDx=0;exitDy=0;exitPerimeter=0;strokeWidth=2;fontFamily=Times New Roman;" edge="1" parent="1">
                    <mxGeometry width="50" height="50" relative="1" as="geometry">
                        <mxPoint x="369.01" y="120" as="sourcePoint"/>
                        <mxPoint x="368.85" y="100.18" as="targetPoint"/>
                    </mxGeometry>
                </mxCell>
                <mxCell id="52" value="" style="endArrow=none;html=1;exitX=0.468;exitY=-0.003;exitDx=0;exitDy=0;exitPerimeter=0;strokeWidth=2;fontFamily=Times New Roman;" edge="1" parent="1">
                    <mxGeometry width="50" height="50" relative="1" as="geometry">
                        <mxPoint x="585.01" y="120" as="sourcePoint"/>
                        <mxPoint x="584.85" y="100.18" as="targetPoint"/>
                    </mxGeometry>
                </mxCell>
                <mxCell id="53" value="" style="endArrow=none;html=1;exitX=0.468;exitY=-0.003;exitDx=0;exitDy=0;exitPerimeter=0;strokeWidth=2;fontFamily=Times New Roman;" edge="1" parent="1">
                    <mxGeometry width="50" height="50" relative="1" as="geometry">
                        <mxPoint x="585.01" y="99.82" as="sourcePoint"/>
                        <mxPoint x="584.85" y="80" as="targetPoint"/>
                    </mxGeometry>
                </mxCell>
                <mxCell id="54" value="" style="endArrow=none;html=1;exitX=0.468;exitY=-0.003;exitDx=0;exitDy=0;exitPerimeter=0;strokeWidth=2;fontFamily=Times New Roman;" edge="1" parent="1">
                    <mxGeometry width="50" height="50" relative="1" as="geometry">
                        <mxPoint x="800.01" y="120" as="sourcePoint"/>
                        <mxPoint x="799.85" y="100.18" as="targetPoint"/>
                    </mxGeometry>
                </mxCell>
                <mxCell id="55" value="" style="endArrow=none;html=1;exitX=0.468;exitY=-0.003;exitDx=0;exitDy=0;exitPerimeter=0;strokeWidth=2;fontFamily=Times New Roman;" edge="1" parent="1">
                    <mxGeometry width="50" height="50" relative="1" as="geometry">
                        <mxPoint x="1020.16" y="120" as="sourcePoint"/>
                        <mxPoint x="1019.9999999999999" y="100.18" as="targetPoint"/>
                    </mxGeometry>
                </mxCell>
                <mxCell id="56" value="" style="endArrow=none;html=1;entryX=0;entryY=0.5;entryDx=0;entryDy=0;strokeWidth=2;fontFamily=Times New Roman;" edge="1" parent="1" target="3">
                    <mxGeometry width="50" height="50" relative="1" as="geometry">
                        <mxPoint x="80" y="150" as="sourcePoint"/>
                        <mxPoint x="200" y="110" as="targetPoint"/>
                    </mxGeometry>
                </mxCell>
                <mxCell id="57" value="" style="endArrow=none;html=1;strokeWidth=2;fontFamily=Times New Roman;" edge="1" parent="1">
                    <mxGeometry width="50" height="50" relative="1" as="geometry">
                        <mxPoint x="80" y="470.7142857142857" as="sourcePoint"/>
                        <mxPoint x="80" y="150" as="targetPoint"/>
                    </mxGeometry>
                </mxCell>
                <mxCell id="58" value="" style="endArrow=none;html=1;exitX=0;exitY=0.5;exitDx=0;exitDy=0;strokeWidth=2;fontFamily=Times New Roman;" edge="1" parent="1" source="20">
                    <mxGeometry width="50" height="50" relative="1" as="geometry">
                        <mxPoint x="150" y="480" as="sourcePoint"/>
                        <mxPoint x="80" y="470" as="targetPoint"/>
                    </mxGeometry>
                </mxCell>
                <mxCell id="59" value="" style="endArrow=none;html=1;exitX=0;exitY=0.5;exitDx=0;exitDy=0;strokeWidth=2;fontFamily=Times New Roman;" edge="1" parent="1">
                    <mxGeometry width="50" height="50" relative="1" as="geometry">
                        <mxPoint x="94" y="389.90999999999997" as="sourcePoint"/>
                        <mxPoint x="79.99999999999997" y="389.90999999999997" as="targetPoint"/>
                    </mxGeometry>
                </mxCell>
                <mxCell id="60" value="" style="endArrow=none;html=1;exitX=0;exitY=0.5;exitDx=0;exitDy=0;strokeWidth=2;fontFamily=Times New Roman;" edge="1" parent="1">
                    <mxGeometry width="50" height="50" relative="1" as="geometry">
                        <mxPoint x="94" y="309.9099999999999" as="sourcePoint"/>
                        <mxPoint x="79.99999999999997" y="309.9099999999999" as="targetPoint"/>
                    </mxGeometry>
                </mxCell>
                <mxCell id="61" value="" style="endArrow=none;html=1;exitX=0;exitY=0.5;exitDx=0;exitDy=0;strokeWidth=2;fontFamily=Times New Roman;" edge="1" parent="1">
                    <mxGeometry width="50" height="50" relative="1" as="geometry">
                        <mxPoint x="94" y="229.9099999999999" as="sourcePoint"/>
                        <mxPoint x="79.99999999999997" y="229.9099999999999" as="targetPoint"/>
                    </mxGeometry>
                </mxCell>
                <mxCell id="62" value="" style="endArrow=none;html=1;exitX=0;exitY=0.5;exitDx=0;exitDy=0;strokeWidth=2;fontFamily=Times New Roman;" edge="1" parent="1">
                    <mxGeometry width="50" height="50" relative="1" as="geometry">
                        <mxPoint x="309" y="149.9099999999999" as="sourcePoint"/>
                        <mxPoint x="290" y="150" as="targetPoint"/>
                    </mxGeometry>
                </mxCell>
                <mxCell id="63" value="" style="endArrow=none;html=1;strokeWidth=2;fontFamily=Times New Roman;" edge="1" parent="1">
                    <mxGeometry width="50" height="50" relative="1" as="geometry">
                        <mxPoint x="290" y="710.1724137931035" as="sourcePoint"/>
                        <mxPoint x="290" y="150" as="targetPoint"/>
                    </mxGeometry>
                </mxCell>
                <mxCell id="64" value="" style="endArrow=none;html=1;entryX=0;entryY=0.5;entryDx=0;entryDy=0;strokeWidth=2;fontFamily=Times New Roman;" edge="1" parent="1" target="27">
                    <mxGeometry width="50" height="50" relative="1" as="geometry">
                        <mxPoint x="290" y="710" as="sourcePoint"/>
                        <mxPoint x="360" y="690" as="targetPoint"/>
                    </mxGeometry>
                </mxCell>
                <mxCell id="65" value="" style="endArrow=none;html=1;entryX=0;entryY=0.5;entryDx=0;entryDy=0;strokeWidth=2;fontFamily=Times New Roman;" edge="1" parent="1">
                    <mxGeometry width="50" height="50" relative="1" as="geometry">
                        <mxPoint x="290.00000000000006" y="629.9099999999999" as="sourcePoint"/>
                        <mxPoint x="309" y="629.9099999999999" as="targetPoint"/>
                    </mxGeometry>
                </mxCell>
                <mxCell id="66" value="" style="endArrow=none;html=1;entryX=0;entryY=0.5;entryDx=0;entryDy=0;strokeWidth=2;fontFamily=Times New Roman;" edge="1" parent="1">
                    <mxGeometry width="50" height="50" relative="1" as="geometry">
                        <mxPoint x="290.00000000000006" y="549.9099999999997" as="sourcePoint"/>
                        <mxPoint x="309" y="549.9099999999997" as="targetPoint"/>
                    </mxGeometry>
                </mxCell>
                <mxCell id="67" value="" style="endArrow=none;html=1;entryX=0;entryY=0.5;entryDx=0;entryDy=0;strokeWidth=2;fontFamily=Times New Roman;" edge="1" parent="1">
                    <mxGeometry width="50" height="50" relative="1" as="geometry">
                        <mxPoint x="290.00000000000006" y="229.90999999999974" as="sourcePoint"/>
                        <mxPoint x="309" y="229.90999999999974" as="targetPoint"/>
                    </mxGeometry>
                </mxCell>
                <mxCell id="68" value="" style="endArrow=none;html=1;entryX=0;entryY=0.5;entryDx=0;entryDy=0;strokeWidth=2;fontFamily=Times New Roman;" edge="1" parent="1">
                    <mxGeometry width="50" height="50" relative="1" as="geometry">
                        <mxPoint x="320" y="300" as="sourcePoint"/>
                        <mxPoint x="341" y="299.9999999999998" as="targetPoint"/>
                    </mxGeometry>
                </mxCell>
                <mxCell id="69" value="" style="endArrow=none;html=1;entryX=0;entryY=0.5;entryDx=0;entryDy=0;strokeWidth=2;fontFamily=Times New Roman;" edge="1" parent="1">
                    <mxGeometry width="50" height="50" relative="1" as="geometry">
                        <mxPoint x="320.00000000000006" y="389.91" as="sourcePoint"/>
                        <mxPoint x="341" y="389.9099999999998" as="targetPoint"/>
                    </mxGeometry>
                </mxCell>
                <mxCell id="70" value="" style="endArrow=none;html=1;entryX=0;entryY=0.5;entryDx=0;entryDy=0;strokeWidth=2;fontFamily=Times New Roman;" edge="1" parent="1">
                    <mxGeometry width="50" height="50" relative="1" as="geometry">
                        <mxPoint x="320.00000000000006" y="469.91" as="sourcePoint"/>
                        <mxPoint x="341" y="469.9099999999998" as="targetPoint"/>
                    </mxGeometry>
                </mxCell>
                <mxCell id="71" value="" style="endArrow=none;html=1;exitX=0.091;exitY=1.016;exitDx=0;exitDy=0;exitPerimeter=0;strokeWidth=2;fontFamily=Times New Roman;" edge="1" parent="1" source="21">
                    <mxGeometry width="50" height="50" relative="1" as="geometry">
                        <mxPoint x="310" y="480" as="sourcePoint"/>
                        <mxPoint x="320" y="470" as="targetPoint"/>
                    </mxGeometry>
                </mxCell>
                <mxCell id="72" value="" style="endArrow=none;html=1;entryX=0;entryY=0.5;entryDx=0;entryDy=0;strokeWidth=2;fontFamily=Times New Roman;" edge="1" parent="1">
                    <mxGeometry width="50" height="50" relative="1" as="geometry">
                        <mxPoint x="537" y="389.83000000000004" as="sourcePoint"/>
                        <mxPoint x="558" y="389.8299999999998" as="targetPoint"/>
                    </mxGeometry>
                </mxCell>
                <mxCell id="73" value="" style="endArrow=none;html=1;entryX=0;entryY=0.5;entryDx=0;entryDy=0;strokeWidth=2;fontFamily=Times New Roman;" edge="1" parent="1">
                    <mxGeometry width="50" height="50" relative="1" as="geometry">
                        <mxPoint x="537" y="469.9500000000001" as="sourcePoint"/>
                        <mxPoint x="558" y="469.9499999999999" as="targetPoint"/>
                    </mxGeometry>
                </mxCell>
                <mxCell id="74" value="" style="endArrow=none;html=1;exitX=0.091;exitY=1.016;exitDx=0;exitDy=0;exitPerimeter=0;strokeWidth=2;fontFamily=Times New Roman;" edge="1" parent="1">
                    <mxGeometry width="50" height="50" relative="1" as="geometry">
                        <mxPoint x="536.92" y="340.00000000000006" as="sourcePoint"/>
                        <mxPoint x="537" y="470" as="targetPoint"/>
                    </mxGeometry>
                </mxCell>
                <mxCell id="75" value="" style="endArrow=none;html=1;strokeWidth=2;fontFamily=Times New Roman;" edge="1" parent="1">
                    <mxGeometry width="50" height="50" relative="1" as="geometry">
                        <mxPoint x="500" y="630" as="sourcePoint"/>
                        <mxPoint x="499.9999999999998" y="150" as="targetPoint"/>
                    </mxGeometry>
                </mxCell>
                <mxCell id="76" value="" style="endArrow=none;html=1;entryX=0;entryY=0.5;entryDx=0;entryDy=0;strokeWidth=2;fontFamily=Times New Roman;" edge="1" parent="1" target="5">
                    <mxGeometry width="50" height="50" relative="1" as="geometry">
                        <mxPoint x="500" y="150" as="sourcePoint"/>
                        <mxPoint x="620" y="220" as="targetPoint"/>
                    </mxGeometry>
                </mxCell>
                <mxCell id="77" value="" style="endArrow=none;html=1;entryX=0;entryY=0.5;entryDx=0;entryDy=0;strokeWidth=2;fontFamily=Times New Roman;" edge="1" parent="1">
                    <mxGeometry width="50" height="50" relative="1" as="geometry">
                        <mxPoint x="500" y="229.70999999999998" as="sourcePoint"/>
                        <mxPoint x="524" y="229.70999999999998" as="targetPoint"/>
                    </mxGeometry>
                </mxCell>
                <mxCell id="78" value="" style="endArrow=none;html=1;entryX=0;entryY=0.5;entryDx=0;entryDy=0;strokeWidth=2;fontFamily=Times New Roman;" edge="1" parent="1">
                    <mxGeometry width="50" height="50" relative="1" as="geometry">
                        <mxPoint x="500" y="309.71" as="sourcePoint"/>
                        <mxPoint x="524" y="309.71" as="targetPoint"/>
                    </mxGeometry>
                </mxCell>
                <mxCell id="79" value="" style="endArrow=none;html=1;entryX=0;entryY=0.5;entryDx=0;entryDy=0;strokeWidth=2;fontFamily=Times New Roman;" edge="1" parent="1">
                    <mxGeometry width="50" height="50" relative="1" as="geometry">
                        <mxPoint x="501" y="549.71" as="sourcePoint"/>
                        <mxPoint x="525" y="549.71" as="targetPoint"/>
                    </mxGeometry>
                </mxCell>
                <mxCell id="80" value="" style="endArrow=none;html=1;entryX=0;entryY=0.5;entryDx=0;entryDy=0;strokeWidth=2;fontFamily=Times New Roman;" edge="1" parent="1">
                    <mxGeometry width="50" height="50" relative="1" as="geometry">
                        <mxPoint x="501" y="629.71" as="sourcePoint"/>
                        <mxPoint x="525" y="629.71" as="targetPoint"/>
                    </mxGeometry>
                </mxCell>
                <mxCell id="81" value="" style="endArrow=none;html=1;strokeWidth=2;fontFamily=Times New Roman;" edge="1" parent="1">
                    <mxGeometry width="50" height="50" relative="1" as="geometry">
                        <mxPoint x="720" y="550" as="sourcePoint"/>
                        <mxPoint x="719.9999999999998" y="149.9999999999999" as="targetPoint"/>
                    </mxGeometry>
                </mxCell>
                <mxCell id="82" value="" style="endArrow=none;html=1;entryX=0;entryY=0.5;entryDx=0;entryDy=0;strokeWidth=2;fontFamily=Times New Roman;" edge="1" parent="1" target="6">
                    <mxGeometry width="50" height="50" relative="1" as="geometry">
                        <mxPoint x="720" y="150" as="sourcePoint"/>
                        <mxPoint x="770" y="90" as="targetPoint"/>
                    </mxGeometry>
                </mxCell>
                <mxCell id="83" value="" style="endArrow=none;html=1;entryX=0;entryY=0.5;entryDx=0;entryDy=0;strokeWidth=2;fontFamily=Times New Roman;" edge="1" parent="1">
                    <mxGeometry width="50" height="50" relative="1" as="geometry">
                        <mxPoint x="720" y="229.87" as="sourcePoint"/>
                        <mxPoint x="739" y="229.87" as="targetPoint"/>
                    </mxGeometry>
                </mxCell>
                <mxCell id="84" value="" style="endArrow=none;html=1;entryX=0;entryY=0.5;entryDx=0;entryDy=0;strokeWidth=2;fontFamily=Times New Roman;" edge="1" parent="1">
                    <mxGeometry width="50" height="50" relative="1" as="geometry">
                        <mxPoint x="721" y="309.87" as="sourcePoint"/>
                        <mxPoint x="740" y="309.87" as="targetPoint"/>
                    </mxGeometry>
                </mxCell>
                <mxCell id="85" value="" style="endArrow=none;html=1;entryX=0;entryY=0.5;entryDx=0;entryDy=0;strokeWidth=2;fontFamily=Times New Roman;" edge="1" parent="1">
                    <mxGeometry width="50" height="50" relative="1" as="geometry">
                        <mxPoint x="720" y="549.87" as="sourcePoint"/>
                        <mxPoint x="739" y="549.87" as="targetPoint"/>
                    </mxGeometry>
                </mxCell>
                <mxCell id="86" value="" style="endArrow=none;html=1;entryX=0.077;entryY=1.012;entryDx=0;entryDy=0;entryPerimeter=0;strokeWidth=2;fontFamily=Times New Roman;" edge="1" parent="1" target="32">
                    <mxGeometry width="50" height="50" relative="1" as="geometry">
                        <mxPoint x="750" y="470" as="sourcePoint"/>
                        <mxPoint x="770" y="360" as="targetPoint"/>
                    </mxGeometry>
                </mxCell>
                <mxCell id="87" value="" style="endArrow=none;html=1;entryX=0;entryY=0.5;entryDx=0;entryDy=0;strokeWidth=2;fontFamily=Times New Roman;" edge="1" parent="1" target="34">
                    <mxGeometry width="50" height="50" relative="1" as="geometry">
                        <mxPoint x="750" y="390" as="sourcePoint"/>
                        <mxPoint x="800" y="390" as="targetPoint"/>
                    </mxGeometry>
                </mxCell>
                <mxCell id="88" value="" style="endArrow=none;html=1;entryX=0;entryY=0.5;entryDx=0;entryDy=0;strokeWidth=2;fontFamily=Times New Roman;" edge="1" parent="1">
                    <mxGeometry width="50" height="50" relative="1" as="geometry">
                        <mxPoint x="750" y="469.84000000000003" as="sourcePoint"/>
                        <mxPoint x="771" y="469.84000000000003" as="targetPoint"/>
                    </mxGeometry>
                </mxCell>
                <mxCell id="89" value="" style="endArrow=none;html=1;strokeWidth=2;fontFamily=Times New Roman;" edge="1" parent="1">
                    <mxGeometry width="50" height="50" relative="1" as="geometry">
                        <mxPoint x="930" y="710" as="sourcePoint"/>
                        <mxPoint x="930" y="150" as="targetPoint"/>
                    </mxGeometry>
                </mxCell>
                <mxCell id="90" value="" style="endArrow=none;html=1;entryX=0;entryY=0.5;entryDx=0;entryDy=0;strokeWidth=2;fontFamily=Times New Roman;" edge="1" parent="1" target="7">
                    <mxGeometry width="50" height="50" relative="1" as="geometry">
                        <mxPoint x="930" y="150" as="sourcePoint"/>
                        <mxPoint x="990" y="140" as="targetPoint"/>
                    </mxGeometry>
                </mxCell>
                <mxCell id="91" value="" style="endArrow=none;html=1;entryX=0;entryY=0.5;entryDx=0;entryDy=0;strokeWidth=2;fontFamily=Times New Roman;" edge="1" parent="1">
                    <mxGeometry width="50" height="50" relative="1" as="geometry">
                        <mxPoint x="930" y="229.9" as="sourcePoint"/>
                        <mxPoint x="954" y="229.9" as="targetPoint"/>
                    </mxGeometry>
                </mxCell>
                <mxCell id="92" value="" style="endArrow=none;html=1;entryX=0;entryY=0.5;entryDx=0;entryDy=0;strokeWidth=2;fontFamily=Times New Roman;" edge="1" parent="1">
                    <mxGeometry width="50" height="50" relative="1" as="geometry">
                        <mxPoint x="930" y="629.9" as="sourcePoint"/>
                        <mxPoint x="954" y="629.9" as="targetPoint"/>
                    </mxGeometry>
                </mxCell>
                <mxCell id="93" value="" style="endArrow=none;html=1;entryX=0;entryY=0.5;entryDx=0;entryDy=0;strokeWidth=2;fontFamily=Times New Roman;" edge="1" parent="1">
                    <mxGeometry width="50" height="50" relative="1" as="geometry">
                        <mxPoint x="930" y="709.9" as="sourcePoint"/>
                        <mxPoint x="954" y="709.9" as="targetPoint"/>
                    </mxGeometry>
                </mxCell>
                <mxCell id="94" value="" style="endArrow=none;html=1;entryX=0;entryY=0.5;entryDx=0;entryDy=0;strokeWidth=2;fontFamily=Times New Roman;" edge="1" parent="1">
                    <mxGeometry width="50" height="50" relative="1" as="geometry">
                        <mxPoint x="960" y="310" as="sourcePoint"/>
                        <mxPoint x="981" y="309.9" as="targetPoint"/>
                    </mxGeometry>
                </mxCell>
                <mxCell id="95" value="" style="endArrow=none;html=1;entryX=0;entryY=0.5;entryDx=0;entryDy=0;strokeWidth=2;fontFamily=Times New Roman;" edge="1" parent="1">
                    <mxGeometry width="50" height="50" relative="1" as="geometry">
                        <mxPoint x="960" y="390" as="sourcePoint"/>
                        <mxPoint x="981" y="389.9" as="targetPoint"/>
                    </mxGeometry>
                </mxCell>
                <mxCell id="96" value="" style="endArrow=none;html=1;entryX=0;entryY=0.5;entryDx=0;entryDy=0;strokeWidth=2;fontFamily=Times New Roman;" edge="1" parent="1">
                    <mxGeometry width="50" height="50" relative="1" as="geometry">
                        <mxPoint x="960" y="470" as="sourcePoint"/>
                        <mxPoint x="981" y="469.9" as="targetPoint"/>
                    </mxGeometry>
                </mxCell>
                <mxCell id="97" value="" style="endArrow=none;html=1;entryX=0;entryY=0.5;entryDx=0;entryDy=0;strokeWidth=2;fontFamily=Times New Roman;" edge="1" parent="1">
                    <mxGeometry width="50" height="50" relative="1" as="geometry">
                        <mxPoint x="960" y="550" as="sourcePoint"/>
                        <mxPoint x="981" y="549.9" as="targetPoint"/>
                    </mxGeometry>
                </mxCell>
                <mxCell id="98" value="" style="endArrow=none;html=1;entryX=0.043;entryY=1.013;entryDx=0;entryDy=0;entryPerimeter=0;strokeWidth=2;fontFamily=Times New Roman;" edge="1" parent="1" target="40">
                    <mxGeometry width="50" height="50" relative="1" as="geometry">
                        <mxPoint x="960" y="550.8247422680413" as="sourcePoint"/>
                        <mxPoint x="990" y="430" as="targetPoint"/>
                    </mxGeometry>
                </mxCell>
            </root>
        </mxGraphModel>
    </diagram>
</mxfile>